<?xml version="1.0" encoding="UTF-8"?>
<svg width="83px" height="129px" viewBox="0 0 83 129" version="1.1" xmlns="http://www.w3.org/2000/svg" xmlns:xlink="http://www.w3.org/1999/xlink">
    <!-- Generator: Sketch 42 (36781) - http://www.bohemiancoding.com/sketch -->
    <title>index-content-page1-3@2x</title>
    <desc>Created with Sketch.</desc>
    <defs>
        <linearGradient x1="40.8644045%" y1="0%" x2="40.864405%" y2="100%" id="linearGradient-1">
            <stop stop-color="#E0E6ED" offset="0%"></stop>
            <stop stop-color="#FFFFFF" stop-opacity="0.6" offset="100%"></stop>
        </linearGradient>
    </defs>
    <g id="Page-1" stroke="none" stroke-width="1" fill="none" fill-rule="evenodd">
        <g id="Desktop-CodeMart-Developer" transform="translate(-1026.000000, -226.000000)">
            <g id="来码市，开启自由职业之路" transform="translate(0.000000, 66.000000)">
                <g id="Group-13" transform="translate(939.000000, 153.000000)">
                    <g id="index-content-page1-3" transform="translate(63.000000, 7.000000)">
                        <rect id="Rectangle-8" x="0.5" y="0" width="130" height="130"></rect>
                        <path d="M72.64,0.03 L83.875,0.03 L83.875,49.17 L95.005,49.17 L95.005,58.935 L83.875,58.935 L83.875,75 L72.22,75 L72.22,58.935 L35.995,58.935 L35.995,47.28 L72.64,0.03 Z M71.905,15.57 L45.97,49.17 L72.22,49.17 L72.22,15.57 L71.905,15.57 Z" id="4" fill="url(#linearGradient-1)"></path>
                        <g id="futuro_icons_179" transform="translate(25.000000, 44.000000)">
                            <polyline id="Shape" fill="#FFFFFF" fill-rule="nonzero" points="24.9230769 12.5125321 18.6923077 3.26482569 24.9230769 0.182256881 31.1538462 3.26482569 37.3846154 0.182256881 43.6153846 3.26482569 37.3846154 12.5125321"></polyline>
                            <path d="M37.3846154,18.6776697 C37.3846154,18.6776697 48.2884615,23.3015229 52.9615385,27.9253761 C57.6346154,32.5492294 62.3076923,47.9620734 62.3076923,75.7051927 C62.3076923,80.3290459 58.8211875,83.4116147 54.5192308,83.4116147 L7.78846154,83.4116147 C3.48650481,83.4116147 0,80.3290459 0,75.7051927 C0,47.9620734 4.67307692,32.5492294 9.34615385,27.9253761 C14.0192308,23.3015229 24.9230769,18.6776697 24.9230769,18.6776697" id="Shape" fill="#FFFFFF" fill-rule="nonzero"></path>
                            <path d="M37.3846154,18.6776697 C37.3846154,18.6776697 48.2884615,23.3015229 52.9615385,27.9253761 C57.6346154,32.5492294 62.3076923,47.9620734 62.3076923,75.7051927 C62.3076923,80.3290459 58.8211875,83.4116147 54.5192308,83.4116147 L7.78846154,83.4116147 C3.48650481,83.4116147 0,80.3290459 0,75.7051927 C0,47.9620734 4.67307692,32.5492294 9.34615385,27.9253761 C14.0192308,23.3015229 24.9230769,18.6776697 24.9230769,18.6776697" id="Shape" stroke="#8796A8" stroke-width="1.6"></path>
                            <rect id="Rectangle-path" fill="#DDE3EB" fill-rule="nonzero" x="24.9230769" y="12.5125321" width="12.4615385" height="6.16513761"></rect>
                            <rect id="Rectangle-path" stroke="#8796A8" stroke-width="1.6" x="24.9230769" y="12.5125321" width="12.4615385" height="6.16513761"></rect>
                            <polyline id="Shape" stroke="#8796A8" stroke-width="1.6" points="24.9230769 12.5125321 18.6923077 3.26482569 24.9230769 0.182256881 31.1538462 3.26482569 37.3846154 0.182256881 43.6153846 3.26482569 37.3846154 12.5125321"></polyline>
                            <ellipse id="Oval" fill="#4896F0" fill-rule="nonzero" cx="31.1538462" cy="44.8795046" rx="18.6923077" ry="18.4954128"></ellipse>
                            <rect id="Rectangle-path" fill="#E0E6ED" fill-rule="nonzero" x="65.4230769" y="77.2464771" width="15.5769231" height="6.16513761"></rect>
                            <rect id="Rectangle-path" stroke="#8796A8" stroke-width="1.6" x="65.4230769" y="77.2464771" width="15.5769231" height="6.16513761"></rect>
                            <rect id="Rectangle-path" fill="#E0E6ED" fill-rule="nonzero" x="65.4230769" y="71.0813394" width="15.5769231" height="6.16513761"></rect>
                            <rect id="Rectangle-path" stroke="#8796A8" stroke-width="1.6" x="65.4230769" y="71.0813394" width="15.5769231" height="6.16513761"></rect>
                            <rect id="Rectangle-path" fill="#E0E6ED" fill-rule="nonzero" x="65.4230769" y="64.9162018" width="15.5769231" height="6.16513761"></rect>
                            <rect id="Rectangle-path" stroke="#8796A8" stroke-width="1.6" x="65.4230769" y="64.9162018" width="15.5769231" height="6.16513761"></rect>
                            <rect id="Rectangle-path" fill="#E0E6ED" fill-rule="nonzero" x="65.4230769" y="58.7510642" width="15.5769231" height="6.16513761"></rect>
                            <rect id="Rectangle-path" stroke="#8796A8" stroke-width="1.6" x="65.4230769" y="58.7510642" width="15.5769231" height="6.16513761"></rect>
                            <rect id="Rectangle-path" fill="#E0E6ED" fill-rule="nonzero" x="49.8461538" y="77.2464771" width="15.5769231" height="6.16513761"></rect>
                            <rect id="Rectangle-path" stroke="#8796A8" stroke-width="1.6" x="49.8461538" y="77.2464771" width="15.5769231" height="6.16513761"></rect>
                            <rect id="Rectangle-path" fill="#E0E6ED" fill-rule="nonzero" x="49.8461538" y="71.0813394" width="15.5769231" height="6.16513761"></rect>
                            <rect id="Rectangle-path" stroke="#8796A8" stroke-width="1.6" x="49.8461538" y="71.0813394" width="15.5769231" height="6.16513761"></rect>
                            <rect id="Rectangle-path" fill="#E0E6ED" fill-rule="nonzero" x="49.8461538" y="64.9162018" width="15.5769231" height="6.16513761"></rect>
                            <rect id="Rectangle-path" stroke="#8796A8" stroke-width="1.6" x="49.8461538" y="64.9162018" width="15.5769231" height="6.16513761"></rect>
                            <rect id="Rectangle-path" fill="#E0E6ED" fill-rule="nonzero" x="49.8461538" y="58.7510642" width="15.5769231" height="6.16513761"></rect>
                            <rect id="Rectangle-path" stroke="#8796A8" stroke-width="1.6" x="49.8461538" y="58.7510642" width="15.5769231" height="6.16513761"></rect>
                            <rect id="Rectangle-path" fill="#E0E6ED" fill-rule="nonzero" x="34.2692308" y="77.2464771" width="15.5769231" height="6.16513761"></rect>
                            <rect id="Rectangle-path" stroke="#8796A8" stroke-width="1.6" x="34.2692308" y="77.2464771" width="15.5769231" height="6.16513761"></rect>
                            <rect id="Rectangle-path" fill="#E0E6ED" fill-rule="nonzero" x="34.2692308" y="71.0813394" width="15.5769231" height="6.16513761"></rect>
                            <rect id="Rectangle-path" stroke="#8796A8" stroke-width="1.6" x="34.2692308" y="71.0813394" width="15.5769231" height="6.16513761"></rect>
                            <rect id="Rectangle-path" fill="#E0E6ED" fill-rule="nonzero" x="65.4230769" y="52.5859266" width="15.5769231" height="6.16513761"></rect>
                            <rect id="Rectangle-path" stroke="#8796A8" stroke-width="1.6" x="65.4230769" y="52.5859266" width="15.5769231" height="6.16513761"></rect>
                            <rect id="Rectangle-path" fill="#DDE3EB" fill-rule="nonzero" x="65.4230769" y="46.420789" width="15.5769231" height="6.16513761"></rect>
                            <rect id="Rectangle-path" stroke="#8796A8" stroke-width="1.6" x="65.4230769" y="46.420789" width="15.5769231" height="6.16513761"></rect>
                            <path d="M26.4807692,49.5033578 C26.4807692,52.0561101 28.5739183,54.127211 31.1538462,54.127211 C33.733774,54.127211 35.8269231,52.0561101 35.8269231,49.5033578 C35.8269231,46.9506055 33.2547837,45.423578 31.1538462,44.8795046 C29.0529087,44.3354312 26.4807692,42.8084037 26.4807692,40.2556514 C26.4807692,37.7028991 28.5739183,35.6317982 31.1538462,35.6317982 C33.733774,35.6317982 35.8269231,37.7028991 35.8269231,40.2556514" id="Shape" stroke="#FFFFFF" stroke-width="1.6"></path>
                            <path d="M30,35.6317982 L30,32.5492294" id="Shape" stroke="#FFFFFF" stroke-width="1.6"></path>
                            <path d="M30,54.127211 L30,57.2097798" id="Shape" stroke="#FFFFFF" stroke-width="1.6"></path>
                            <path d="M40.5,44 L43.6153846,44" id="Shape" stroke="#FFFFFF" stroke-width="1.6"></path>
                            <path d="M18.6923077,44 L21.8076923,44" id="Shape" stroke="#FFFFFF" stroke-width="1.6"></path>
                        </g>
                    </g>
                </g>
            </g>
        </g>
    </g>
</svg>