<?xml version="1.0" encoding="UTF-8"?>
<svg width="86px" height="120px" viewBox="0 0 86 120" version="1.1" xmlns="http://www.w3.org/2000/svg" xmlns:xlink="http://www.w3.org/1999/xlink">
    <!-- Generator: Sketch 42 (36781) - http://www.bohemiancoding.com/sketch -->
    <title>index-content-page1-4@2x</title>
    <desc>Created with Sketch.</desc>
    <defs>
        <linearGradient x1="40.8644045%" y1="0%" x2="40.864405%" y2="100%" id="linearGradient-1">
            <stop stop-color="#E0E6ED" offset="0%"></stop>
            <stop stop-color="#FFFFFF" stop-opacity="0.6" offset="100%"></stop>
        </linearGradient>
    </defs>
    <g id="Page-1" stroke="none" stroke-width="1" fill="none" fill-rule="evenodd">
        <g id="Desktop-CodeMart-Developer" transform="translate(-740.000000, -226.000000)">
            <g id="来码市，开启自由职业之路" transform="translate(0.000000, 66.000000)">
                <g id="Group-12" transform="translate(654.000000, 153.000000)">
                    <g id="index-content-page1-4" transform="translate(63.000000, 7.000000)">
                        <rect id="Rectangle-8" x="0.5" y="0" width="130" height="130"></rect>
                        <path d="M66.1825,0.09 C58.8325,0.09 52.7425,2.085 48.0175,6.285 C42.9775,10.485 40.2475,16.365 39.6175,23.925 L51.6925,23.925 C52.1125,19.41 53.5825,16.05 56.1025,13.845 C58.5175,11.64 61.8775,10.59 66.2875,10.59 C70.5925,10.59 73.8475,11.535 76.0525,13.425 C78.0475,15.315 79.0975,18.045 79.0975,21.72 C79.0975,25.395 77.9425,28.23 75.7375,30.12 C73.4275,32.01 70.0675,32.955 65.6575,32.955 L60.4075,32.955 L60.4075,42.195 L65.6575,42.195 C70.4875,42.195 74.1625,43.14 76.6825,45.24 C79.2025,47.235 80.5675,50.385 80.5675,54.69 C80.5675,58.26 79.3075,61.2 76.8925,63.615 C74.1625,66.24 70.3825,67.605 65.6575,67.605 C61.3525,67.605 57.8875,66.345 55.2625,63.93 C52.3225,61.305 50.8525,57.525 50.6425,52.695 L38.1475,52.695 C38.7775,61.095 41.7175,67.605 46.9675,72.015 C51.6925,76.005 57.9925,78 65.7625,78 C73.9525,78 80.5675,75.69 85.6075,71.175 C90.4375,66.765 92.8525,61.095 92.8525,54.165 C92.8525,49.755 91.5925,46.08 89.0725,43.245 C86.7625,40.515 83.2975,38.52 78.8875,37.155 C87.1825,34.425 91.3825,28.965 91.3825,20.775 C91.3825,14.265 89.0725,9.225 84.5575,5.55 C79.9375,1.875 73.7425,0.09 66.1825,0.09 Z" id="3" fill="url(#linearGradient-1)"></path>
                        <g id="futuro_icons_170" transform="translate(23.000000, 52.000000)">
                            <path d="M56.6046265,13.3383147 L29.6166747,13.3383147 L12.074506,30.7596345 L12.074506,32.099736 L17.4720964,37.4601421 L17.4720964,41.4804467 L41.761253,65.6022741 C41.761253,65.6022741 43.1106506,66.9423756 44.4600482,66.9423756 C46.694988,66.9423756 48.508241,65.1416142 48.508241,62.9220711 C48.508241,61.5819695 47.1588434,60.241868 47.1588434,60.241868 L49.8576386,62.9220711 C49.8576386,62.9220711 51.2070361,64.2621726 52.5564337,64.2621726 C54.7913735,64.2621726 56.6046265,62.4614112 56.6046265,60.241868 C56.6046265,58.9017665 55.2552289,57.561665 55.2552289,57.561665 L56.6046265,58.9017665 C56.6046265,58.9017665 57.9540241,60.241868 59.3034217,60.241868 C61.5383614,60.241868 63.3516145,58.4411066 63.3516145,56.2215635 C63.3516145,54.8814619 62.0022169,53.5413604 62.0022169,53.5413604 L59.3034217,50.8611574 C59.3034217,50.8611574 60.6528193,52.2012589 62.0022169,52.2012589 C64.2371566,52.2012589 66.0504096,50.4004975 66.0504096,48.1809543 C66.0504096,46.8408528 64.701012,45.5007513 64.701012,45.5007513 L63.3516145,44.1606497 L64.701012,44.1606497 L70.0986024,38.8002437 L70.0986024,36.1200406 L74.1467952,32.099736 L74.1467952,30.7596345 L56.6046265,13.3383147 Z" id="Shape" fill="#FFFFFF" fill-rule="nonzero"></path>
                            <path d="M24.2194217,49.5210558 C24.2194217,49.5210558 22.8700241,50.8611574 21.5206265,50.8611574 C19.2856867,50.8611574 17.4724337,49.0603959 17.4724337,46.8408528 C17.4724337,45.5007513 18.8218313,44.1606497 18.8218313,44.1606497 L24.2194217,49.5210558 Z" id="Shape" fill="#FFFFFF" fill-rule="nonzero"></path>
                            <path d="M29.617012,54.8814619 C29.617012,54.8814619 28.2676145,56.2215635 26.9182169,56.2215635 C24.6832771,56.2215635 22.8700241,54.420802 22.8700241,52.2012589 C22.8700241,50.8611574 24.2194217,49.5210558 24.2194217,49.5210558 L29.617012,54.8814619 Z" id="Shape" fill="#FFFFFF" fill-rule="nonzero"></path>
                            <path d="M35.0146024,60.241868 C35.0146024,60.241868 33.6652048,61.5819695 32.3158072,61.5819695 C30.0808675,61.5819695 28.2676145,59.7812081 28.2676145,57.561665 C28.2676145,56.2215635 29.617012,54.8814619 29.617012,54.8814619 L35.0146024,60.241868 Z" id="Shape" fill="#FFFFFF" fill-rule="nonzero"></path>
                            <path d="M40.4121928,65.6022741 C40.4121928,65.6022741 39.0627952,66.9423756 37.7133976,66.9423756 C35.4784578,66.9423756 33.6652048,65.1416142 33.6652048,62.9220711 C33.6652048,61.5819695 35.0146024,60.241868 35.0146024,60.241868 L40.4121928,65.6022741 Z" id="Shape" fill="#FFFFFF" fill-rule="nonzero"></path>
                            <polyline id="Shape" fill="#CAD3DE" fill-rule="nonzero" points="84.9419759 25.3992284 76.8455904 33.4398376 52.5564337 9.31801015 60.6528193 1.27740102"></polyline>
                            <path d="M29.617012,13 L56.6046265,13" id="Shape" stroke="#8796A8" stroke-width="1.6"></path>
                            <polyline id="Shape" stroke="#8796A8" stroke-width="1.6" stroke-linecap="round" points="74.1467952 32.099736 70.0986024 36.1200406 70.0986024 38.8002437 64.701012 44.1606497"></polyline>
                            <path d="M47.1588434,38.8002437 L62.0022169,53.5413604" id="Shape" stroke="#8796A8" stroke-width="1.6" stroke-linecap="round"></path>
                            <path d="M64.701012,45.5007513 C64.701012,45.5007513 66.0504096,46.8408528 66.0504096,48.1809543 C66.0504096,50.4004975 64.2371566,52.2012589 62.0022169,52.2012589 C60.6528193,52.2012589 59.3034217,50.8611574 59.3034217,50.8611574" id="Shape" stroke="#8796A8" stroke-width="1.6" stroke-linecap="round"></path>
                            <path d="M62.0022169,53.5413604 C62.0022169,53.5413604 63.3516145,54.8814619 63.3516145,56.2215635 C63.3516145,58.4411066 61.5383614,60.241868 59.3034217,60.241868 C57.9540241,60.241868 56.6046265,58.9017665 56.6046265,58.9017665 L41.761253,44.1606497" id="Shape" stroke="#8796A8" stroke-width="1.6" stroke-linecap="round"></path>
                            <path d="M55.2552289,57.561665 C55.2552289,57.561665 56.6046265,58.9017665 56.6046265,60.241868 C56.6046265,62.4614112 54.7913735,64.2621726 52.5564337,64.2621726 C51.2070361,64.2621726 49.8576386,62.9220711 49.8576386,62.9220711 L36.3636627,49.5210558" id="Shape" stroke="#8796A8" stroke-width="1.6" stroke-linecap="round"></path>
                            <path d="M47.1588434,60.241868 C47.1588434,60.241868 48.508241,61.5819695 48.508241,62.9220711 C48.508241,65.1416142 46.694988,66.9423756 44.4600482,66.9423756 C43.1106506,66.9423756 41.761253,65.6022741 41.761253,65.6022741 L17.4720964,41.4804467 L17.4720964,37.4601421 L12.074506,32.099736" id="Shape" stroke="#8796A8" stroke-width="1.6" stroke-linecap="round"></path>
                            <path d="M24.2194217,49.5210558 C24.2194217,49.5210558 22.8700241,50.8611574 21.5206265,50.8611574 C19.2856867,50.8611574 17.4724337,49.0603959 17.4724337,46.8408528 C17.4724337,45.5007513 18.8218313,44.1606497 18.8218313,44.1606497" id="Shape" stroke="#8796A8" stroke-width="1.6" stroke-linecap="round"></path>
                            <path d="M29.617012,54.8814619 C29.617012,54.8814619 28.2676145,56.2215635 26.9182169,56.2215635 C24.6832771,56.2215635 22.8700241,54.420802 22.8700241,52.2012589 C22.8700241,50.8611574 24.2194217,49.5210558 24.2194217,49.5210558" id="Shape" stroke="#8796A8" stroke-width="1.6" stroke-linecap="round"></path>
                            <path d="M35.0146024,60.241868 C35.0146024,60.241868 33.6652048,61.5819695 32.3158072,61.5819695 C30.0808675,61.5819695 28.2676145,59.7812081 28.2676145,57.561665 C28.2676145,56.2215635 29.617012,54.8814619 29.617012,54.8814619" id="Shape" stroke="#8796A8" stroke-width="1.6" stroke-linecap="round"></path>
                            <path d="M40.4121928,65.6022741 C40.4121928,65.6022741 39.0627952,66.9423756 37.7133976,66.9423756 C35.4784578,66.9423756 33.6652048,65.1416142 33.6652048,62.9220711 C33.6652048,61.5819695 35.0146024,60.241868 35.0146024,60.241868" id="Shape" stroke="#8796A8" stroke-width="1.6" stroke-linecap="round"></path>
                            <path d="M64.701012,45.5007513 L47.1588434,28.0794315 L47.1588434,20.0388223 L43.1106506,20.0388223 L36.3636627,26.7393299 C36.3636627,26.7393299 35.0142651,28.0794315 33.6648675,28.0794315 C31.4299277,28.0794315 29.6166747,26.2786701 29.6166747,24.0591269 C29.6166747,22.7190254 30.9660723,21.3789239 30.9660723,21.3789239 L39.0624578,13.3383147" id="Shape" stroke="#8796A8" stroke-width="1.6" stroke-linecap="round"></path>
                            <path d="M57.9540241,26.7393299 C57.9540241,28.9588731 56.1407711,30.7596345 53.9058313,30.7596345 L49.8576386,30.7596345" id="Shape" stroke="#8796A8" stroke-width="1.6"></path>
                            <polyline id="Shape" stroke="#8796A8" stroke-width="1.6" points="84.9419759 25.3992284 76.8455904 33.4398376 52.5564337 9.31801015 60.6528193 1.27740102"></polyline>
                            <path d="M74.1467952,22.7190254 L76.8455904,25.3992284" id="Shape" stroke="#8796A8" stroke-width="1.6" stroke-linecap="round"></path>
                            <polyline id="Shape" fill="#4896F0" fill-rule="nonzero" points="0 26.25 9 35 36 8.75 27 0"></polyline>
                            <path d="M9.37604819,25.3992284 L12.0748434,22.7190254" id="Shape" stroke="#FFFFFF" stroke-width="1.6" stroke-linecap="round"></path>
                        </g>
                    </g>
                </g>
            </g>
        </g>
    </g>
</svg>