<?xml version="1.0" encoding="UTF-8"?>
<svg width="87px" height="129px" viewBox="0 0 87 129" version="1.1" xmlns="http://www.w3.org/2000/svg" xmlns:xlink="http://www.w3.org/1999/xlink">
    <!-- Generator: Sketch 42 (36781) - http://www.bohemiancoding.com/sketch -->
    <title>index-content-page1-1@2x</title>
    <desc>Created with Sketch.</desc>
    <defs>
        <linearGradient x1="40.8644045%" y1="0%" x2="40.864405%" y2="100%" id="linearGradient-1">
            <stop stop-color="#E0E6ED" offset="0%"></stop>
            <stop stop-color="#FFFFFF" stop-opacity="0.6" offset="100%"></stop>
        </linearGradient>
    </defs>
    <g id="Page-1" stroke="none" stroke-width="1" fill="none" fill-rule="evenodd">
        <g id="Desktop-CodeMart-Developer" transform="translate(-454.000000, -226.000000)">
            <g id="来码市，开启自由职业之路" transform="translate(0.000000, 66.000000)">
                <g id="Group-9" transform="translate(369.000000, 153.000000)">
                    <g id="index-content-page1-1" transform="translate(63.000000, 7.000000)">
                        <rect id="Rectangle-8" x="0.5" y="0" width="130" height="130"></rect>
                        <path d="M66.655,0.56 C58.57,0.56 52.06,3.29 47.125,8.75 C42.295,13.895 39.88,20.615 39.775,29.015 L52.06,29.015 C52.27,23.135 53.53,18.62 55.84,15.68 C58.15,12.53 61.615,10.955 66.235,10.955 C70.54,10.955 73.795,11.9 76,13.895 C78.1,15.89 79.255,18.935 79.255,23.03 C79.255,27.23 77.575,31.22 74.32,34.895 C72.22,37.1 68.86,39.935 64.03,43.295 C55.315,49.28 49.54,53.9 46.81,57.05 C41.77,62.72 39.355,69.335 39.355,77 L91.645,77 L91.645,66.185 L54.685,66.185 C56.365,62.405 60.985,57.995 68.65,52.955 C76,48.02 81.25,44.03 84.19,40.88 C89.02,35.525 91.54,29.645 91.54,23.135 C91.54,16.415 89.23,11.06 84.61,6.86 C79.885,2.66 73.9,0.56 66.655,0.56 Z" id="2" fill="url(#linearGradient-1)"></path>
                        <g id="futuro_icons_342" transform="translate(23.500000, 43.500000)">
                            <path d="M23.0322581,72.8571429 L23.0322581,70.1580556 L27.0967742,56.6666667 L27.0967742,39.1269841 C27.0967742,37.6367857 25.8835161,36.4285714 24.3870968,36.4285714 C22.8906774,36.4285714 21.6774194,37.6367857 21.6774194,39.1269841 L21.6774194,36.4285714 C21.6774194,34.938373 20.4641613,33.7301587 18.9677419,33.7301587 C17.4713226,33.7301587 16.2580645,34.938373 16.2580645,36.4285714 L16.2580645,33.7301587 C16.2580645,32.2399603 15.0448065,31.031746 13.5483871,31.031746 C12.0519677,31.031746 10.8387097,32.2399603 10.8387097,33.7301587 L10.8387097,36.4285714 C10.8387097,34.938373 9.62545161,33.7301587 8.12903226,33.7301587 C6.6326129,33.7301587 5.41935484,34.938373 5.41935484,36.4285714 L5.41935484,45.8730159 L2.70967742,45.8730159 C1.21325806,45.8730159 0,47.0812302 0,48.5714286 L0,56.6666667 L2.70967742,62.0634921 L6.77419355,67.4603175 L6.77419355,72.8571429" id="Shape" fill-rule="nonzero"></path>
                            <path d="M23.0322581,72.8571429 L23.0322581,70.1580556 L27.0967742,56.6666667 L27.0967742,39.1269841 C27.0967742,37.6367857 25.8835161,36.4285714 24.3870968,36.4285714 C22.8906774,36.4285714 21.6774194,37.6367857 21.6774194,39.1269841 L21.6774194,36.4285714 C21.6774194,34.938373 20.4641613,33.7301587 18.9677419,33.7301587 C17.4713226,33.7301587 16.2580645,34.938373 16.2580645,36.4285714 L16.2580645,33.7301587 C16.2580645,32.2399603 15.0448065,31.031746 13.5483871,31.031746 C12.0519677,31.031746 10.8387097,32.2399603 10.8387097,33.7301587 L10.8387097,36.4285714 C10.8387097,34.938373 9.62545161,33.7301587 8.12903226,33.7301587 C6.6326129,33.7301587 5.41935484,34.938373 5.41935484,36.4285714 L5.41935484,53.968254" id="Shape" stroke="#8796A8" stroke-width="1.6"></path>
                            <path d="M10.8414939,36.4345522 L10.8414939,49.9266157" id="Shape" stroke="#8796A8" stroke-width="1.6"></path>
                            <path d="M16.2520466,36.4285714 L16.2520466,49.9206349" id="Shape" stroke="#8796A8" stroke-width="1.6"></path>
                            <path d="M21.6695041,39.1065641 L21.6695041,49.9002149" id="Shape" stroke="#8796A8" stroke-width="1.6"></path>
                            <path d="M5.41935484,45.8730159 L2.70967742,45.8730159 C1.21325806,45.8730159 0,47.0812302 0,48.5714286 L0,56.6666667 L2.70967742,62.0634921 L6.77419355,67.4603175 L6.77419355,72.8571429" id="Shape" stroke="#8796A8" stroke-width="1.6"></path>
                            <rect id="Rectangle-path" fill="#FFFFFF" fill-rule="nonzero" x="5.41935484" y="72.8571429" width="18.9677419" height="12.1428571"></rect>
                            <polyline id="Shape" stroke="#8796A8" stroke-width="1.6" points="5.41935484 85 5.41935484 72.8571429 24.3870968 72.8571429 24.3870968 85"></polyline>
                            <path d="M20.3225806,77 L17.6129032,77" id="Shape" stroke="#8796A8" stroke-width="1.6"></path>
                            <path d="M50.1290323,41.8253968 L50.1290323,39.1263095 L54.1935484,25.6349206 L54.1935484,8.0952381 C54.1935484,6.60503968 52.9802903,5.3968254 51.483871,5.3968254 C49.9874516,5.3968254 48.7741935,6.60503968 48.7741935,8.0952381 L48.7741935,5.3968254 C48.7741935,3.90662698 47.5609355,2.6984127 46.0645161,2.6984127 C44.5680968,2.6984127 43.3548387,3.90662698 43.3548387,5.3968254 L43.3548387,2.6984127 C43.3548387,1.20821429 42.1415806,0 40.6451613,0 C39.1487419,0 37.9354839,1.20821429 37.9354839,2.6984127 L37.9354839,5.3968254 C37.9354839,3.90662698 36.7222258,2.6984127 35.2258065,2.6984127 C33.7293871,2.6984127 32.516129,3.90662698 32.516129,5.3968254 L32.516129,14.8412698 L29.8064516,14.8412698 C28.3100323,14.8412698 27.0967742,16.0494841 27.0967742,17.5396825 L27.0967742,25.6349206 L29.8064516,31.031746 L33.8709677,36.4285714 L33.8709677,41.8253968" id="Shape" fill="#EFF2F7" fill-rule="nonzero"></path>
                            <path d="M50.1290323,41.8253968 L50.1290323,39.1263095 L54.1935484,25.6349206 L54.1935484,8.0952381 C54.1935484,6.60503968 52.9802903,5.3968254 51.483871,5.3968254 C49.9874516,5.3968254 48.7741935,6.60503968 48.7741935,8.0952381 L48.7741935,5.3968254 C48.7741935,3.90662698 47.5609355,2.6984127 46.0645161,2.6984127 C44.5680968,2.6984127 43.3548387,3.90662698 43.3548387,5.3968254 L43.3548387,2.6984127 C43.3548387,1.20821429 42.1415806,0 40.6451613,0 C39.1487419,0 37.9354839,1.20821429 37.9354839,2.6984127 L37.9354839,5.3968254 C37.9354839,3.90662698 36.7222258,2.6984127 35.2258065,2.6984127 C33.7293871,2.6984127 32.516129,3.90662698 32.516129,5.3968254 L32.516129,22.9365079" id="Shape" stroke="#8796A8" stroke-width="1.6"></path>
                            <path d="M37.9217936,5.3968254 L37.9217936,18.8888889" id="Shape" stroke="#8796A8" stroke-width="1.6"></path>
                            <path d="M43.3591043,5.3968254 L43.3591043,18.8888889" id="Shape" stroke="#8796A8" stroke-width="1.6"></path>
                            <path d="M48.7822591,8.0952381 L48.7822591,18.8888889" id="Shape" stroke="#8796A8" stroke-width="1.6"></path>
                            <path d="M32.516129,14.8412698 L29.8064516,14.8412698 C28.3100323,14.8412698 27.0967742,16.0494841 27.0967742,17.5396825 L27.0967742,25.6349206 L29.8064516,31.031746 L33.8709677,36.4285714 L33.8709677,41.8253968" id="Shape" stroke="#8796A8" stroke-width="1.6"></path>
                            <rect id="Rectangle-path" fill="#4896F0" fill-rule="nonzero" x="31.7580645" y="41.8253968" width="20.483871" height="43.1746032"></rect>
                            <path d="M47.4193548,46 L44.7096774,46" id="Shape" stroke="#FFFFFF" stroke-width="1.6"></path>
                            <path d="M79.9354839,60.7142857 L79.9354839,58.0151984 L84,44.5238095 L84,26.984127 C84,25.4939286 82.7867419,24.2857143 81.2903226,24.2857143 C79.7939032,24.2857143 78.5806452,25.4939286 78.5806452,26.984127 L78.5806452,24.2857143 C78.5806452,22.7955159 77.3673871,21.5873016 75.8709677,21.5873016 C74.3745484,21.5873016 73.1612903,22.7955159 73.1612903,24.2857143 L73.1612903,21.5873016 C73.1612903,20.0971032 71.9480323,18.8888889 70.4516129,18.8888889 C68.9551935,18.8888889 67.7419355,20.0971032 67.7419355,21.5873016 L67.7419355,24.2857143 C67.7419355,22.7955159 66.5286774,21.5873016 65.0322581,21.5873016 C63.5358387,21.5873016 62.3225806,22.7955159 62.3225806,24.2857143 L62.3225806,33.7301587 L59.6129032,33.7301587 C58.1164839,33.7301587 56.9032258,34.938373 56.9032258,36.4285714 L56.9032258,44.5238095 L59.6129032,49.9206349 L63.6774194,55.3174603 L63.6774194,60.7142857" id="Shape" fill-rule="nonzero"></path>
                            <path d="M79.9354839,60.7142857 L79.9354839,58.0151984 L84,44.5238095 L84,26.984127 C84,25.4939286 82.7867419,24.2857143 81.2903226,24.2857143 C79.7939032,24.2857143 78.5806452,25.4939286 78.5806452,26.984127 L78.5806452,24.2857143 C78.5806452,22.7955159 77.3673871,21.5873016 75.8709677,21.5873016 C74.3745484,21.5873016 73.1612903,22.7955159 73.1612903,24.2857143 L73.1612903,21.5873016 C73.1612903,20.0971032 71.9480323,18.8888889 70.4516129,18.8888889 C68.9551935,18.8888889 67.7419355,20.0971032 67.7419355,21.5873016 L67.7419355,24.2857143 C67.7419355,22.7955159 66.5286774,21.5873016 65.0322581,21.5873016 C63.5358387,21.5873016 62.3225806,22.7955159 62.3225806,24.2857143 L62.3225806,41.8253968" id="Shape" stroke="#8796A8" stroke-width="1.6"></path>
                            <path d="M67.7298298,24.2857143 L67.7298298,37.7777778" id="Shape" stroke="#8796A8" stroke-width="1.6"></path>
                            <path d="M73.1681204,24.2857143 L73.1681204,37.7777778" id="Shape" stroke="#8796A8" stroke-width="1.6"></path>
                            <path d="M78.5746223,26.984127 L78.5746223,37.7777778" id="Shape" stroke="#8796A8" stroke-width="1.6"></path>
                            <path d="M62.3225806,33.7301587 L59.6129032,33.7301587 C58.1164839,33.7301587 56.9032258,34.938373 56.9032258,36.4285714 L56.9032258,44.5238095 L59.6129032,49.9206349 L63.6774194,55.3174603 L63.6774194,60.7142857" id="Shape" stroke="#8796A8" stroke-width="1.6"></path>
                            <rect id="Rectangle-path" fill="#CAD3DE" fill-rule="nonzero" x="62.3225806" y="60.7142857" width="18.9677419" height="24.2857143"></rect>
                            <polyline id="Shape" stroke="#8796A8" stroke-width="1.6" points="62.3225806 85 62.3225806 60.7142857 81.2903226 60.7142857 81.2903226 85"></polyline>
                            <path d="M77.2258065,65 L74.516129,65" id="Shape" stroke="#8796A8" stroke-width="1.6"></path>
                        </g>
                    </g>
                </g>
            </g>
        </g>
    </g>
</svg>