<?xml version="1.0" encoding="UTF-8"?>
<svg width="87px" height="129px" viewBox="0 0 87 129" version="1.1" xmlns="http://www.w3.org/2000/svg" xmlns:xlink="http://www.w3.org/1999/xlink">
    <!-- Generator: Sketch 42 (36781) - http://www.bohemiancoding.com/sketch -->
    <title>index-content-page1-2@2x</title>
    <desc>Created with Sketch.</desc>
    <defs>
        <linearGradient x1="40.8644045%" y1="0%" x2="40.864405%" y2="100%" id="linearGradient-1">
            <stop stop-color="#E0E6ED" offset="0%"></stop>
            <stop stop-color="#FFFFFF" stop-opacity="0.6" offset="100%"></stop>
        </linearGradient>
    </defs>
    <g id="Page-1" stroke="none" stroke-width="1" fill="none" fill-rule="evenodd">
        <g id="Desktop-CodeMart-Developer" transform="translate(-169.000000, -226.000000)">
            <g id="来码市，开启自由职业之路" transform="translate(0.000000, 66.000000)">
                <g id="Group-7" transform="translate(84.000000, 153.000000)">
                    <g id="index-content-page1-2" transform="translate(63.000000, 7.000000)">
                        <rect id="Rectangle-8" x="0.5" y="0" width="130" height="130"></rect>
                        <path d="M70.96,0.03 C68.44,2.655 65.29,5.07 61.51,7.38 C57.73,9.48 54.16,10.95 50.8,11.79 L50.8,23.97 C57.73,21.975 63.4,18.93 67.915,14.835 L67.915,75 L80.2,75 L80.2,0.03 L70.96,0.03 Z" id="1" fill="url(#linearGradient-1)"></path>
                        <g id="futuro_icons_333" transform="translate(23.500000, 44.000000)">
                            <path d="M66.3870968,59.6129032 L66.3870968,23.0322581 C66.3870968,16.2976935 60.9281129,10.8387097 54.1935484,10.8387097 L29.8064516,10.8387097 C23.0718871,10.8387097 17.6129032,16.2976935 17.6129032,23.0322581 L17.6129032,59.6129032" id="Shape" fill="#4896F0" fill-rule="nonzero"></path>
                            <path d="M52.8387097,39.2903226 C62.3225806,44.7096774 73.1612903,43.3548387 73.1612903,56.9032258 L73.1612903,59.6129032 L10.8387097,59.6129032 L10.8387097,56.9032258 C10.8387097,43.3548387 21.6774194,44.7096774 31.1612903,39.2903226 L52.8387097,39.2903226 Z" id="Shape" fill="#CAD3DE" fill-rule="nonzero"></path>
                            <polygon id="Shape" fill="#FFFFFF" fill-rule="nonzero" points="47.4193548 44.7096774 42 42 36.5806452 44.7096774 31.1612903 39.2903226 33.8709677 35.2258065 35.2258065 35.2258065 35.2258065 29.8064516 42 31.1612903 48.7741935 29.8064516 48.7741935 35.2258065 50.1290323 35.2258065 52.8387097 39.2903226"></polygon>
                            <polygon id="Shape" stroke="#8796A8" stroke-width="1.6" points="47.4193548 44.7096774 42 42 36.5806452 44.7096774 31.1612903 39.2903226 33.8709677 35.2258065 42 36.5806452 50.1290323 35.2258065 52.8387097 39.2903226"></polygon>
                            <path d="M48,29.8064516 L48,35.2258065" id="Shape" stroke="#8796A8" stroke-width="1.6"></path>
                            <path d="M34,35.2258065 L34,29.8064516" id="Shape" stroke="#8796A8" stroke-width="1.6"></path>
                            <path d="M54.1935484,12.1935484 L54.1935484,17.6129032 C52.8387097,27.0967742 48.7741935,29.8064516 48.7741935,29.8064516 C46.0645161,31.1612903 42,31.1612903 42,31.1612903 C42,31.1612903 37.9354839,31.1612903 35.2258065,29.8064516 C35.2258065,29.8064516 31.1612903,27.0967742 29.8064516,17.6129032 L29.8064516,12.1935484 L35.2258065,9.48387097 L48.7741935,14.9032258 L54.1935484,12.1935484 Z" id="Shape" fill="#FFFFFF" fill-rule="nonzero"></path>
                            <path d="M29.8064516,12.1935484 C29.8064516,3.96256452 33.7690161,0 42,0 C50.2309839,0 54.1935484,3.96256452 54.1935484,12.1935484 L48.7741935,14.9032258 L42,12.1935484 L35.2258065,9.48387097 L29.8064516,12.1935484 Z" id="Shape" fill="#CAD3DE" fill-rule="nonzero"></path>
                            <path d="M54.1935484,12.1935484 L54.1935484,17.6129032 C52.8387097,27.0967742 48.7741935,29.8064516 48.7741935,29.8064516 C46.0645161,31.1612903 42,31.1612903 42,31.1612903 C42,31.1612903 37.9354839,31.1612903 35.2258065,29.8064516 C35.2258065,29.8064516 31.1612903,27.0967742 29.8064516,17.6129032 L29.8064516,12.1935484" id="Shape" stroke="#8796A8" stroke-width="1.6"></path>
                            <path d="M29.8064516,12.1935484 C29.8064516,3.96256452 33.7690161,0 42,0 C50.2309839,0 54.1935484,3.96256452 54.1935484,12.1935484" id="Shape" stroke="#8796A8" stroke-width="1.6"></path>
                            <polyline id="Shape" stroke="#8796A8" stroke-width="1.6" points="29.8064516 12.1935484 35.2258065 9.48387097 42 12.1935484 48.7741935 14.9032258 54.1935484 12.1935484"></polyline>
                            <rect id="Rectangle-path" fill="#FFFFFF" fill-rule="nonzero" x="0" y="59.6129032" width="84" height="24.3870968"></rect>
                            <polyline id="Shape" stroke="#8796A8" stroke-width="1.6" points="13.5483871 84 0 84 0 59.6129032 84 59.6129032 84 84 70.4516129 84"></polyline>
                            <path d="M65.0322581,52.8387097 L65.0322581,84 L18.9677419,84 L18.9677419,52.8387097 C18.9677419,50.5947581 20.7883065,48.7741935 23.0322581,48.7741935 L60.9677419,48.7741935 C63.2116935,48.7741935 65.0322581,50.5947581 65.0322581,52.8387097 Z" id="Shape" fill="#FFFFFF" fill-rule="nonzero"></path>
                            <path d="M65.0322581,52.8387097 L65.0322581,84 L18.9677419,84 L18.9677419,52.8387097 C18.9677419,50.5947581 20.7883065,48.7741935 23.0322581,48.7741935 L60.9677419,48.7741935 C63.2116935,48.7741935 65.0322581,50.5947581 65.0322581,52.8387097 Z" id="Shape" stroke="#8796A8" stroke-width="1.6" stroke-linejoin="round"></path>
                            <polyline id="Shape" stroke="#8796A8" stroke-width="1.6" stroke-linejoin="round" points="65.0322581 84 69.0967742 75.8709677 69.0967742 65.0322581 65.0322581 65.0322581"></polyline>
                            <polyline id="Shape" stroke="#8796A8" stroke-width="1.6" stroke-linejoin="round" points="18.9677419 84 14.9032258 75.8709677 14.9032258 65.0322581 18.9677419 65.0322581"></polyline>
                            <circle id="Oval" fill="#4896F0" fill-rule="nonzero" cx="42" cy="66.3870968" r="4.06451613"></circle>
                        </g>
                    </g>
                </g>
            </g>
        </g>
    </g>
</svg>