<?xml version="1.0" encoding="UTF-8"?>
<svg width="49px" height="45px" viewBox="0 0 49 45" version="1.1" xmlns="http://www.w3.org/2000/svg" xmlns:xlink="http://www.w3.org/1999/xlink">
    <!-- Generator: Sketch 42 (36781) - http://www.bohemiancoding.com/sketch -->
    <title>index-content-page5-game@2x</title>
    <desc>Created with Sketch.</desc>
    <defs></defs>
    <g id="Page-1" stroke="none" stroke-width="1" fill="none" fill-rule="evenodd">
        <g id="Desktop-CodeMart-Developer" transform="translate(-1044.000000, -2770.000000)">
            <g id="项目类型资源分布" transform="translate(0.000000, 2377.000000)">
                <g id="Group-28" transform="translate(968.000000, 354.000000)">
                    <g id="index-content-page5-game" transform="translate(69.000000, 30.000000)">
                        <rect id="Rectangle-17" x="0" y="0" width="63" height="63"></rect>
                        <g id="游戏-(1)" transform="translate(7.000000, 9.000000)" fill-rule="nonzero" fill="#8796A8">
                            <path d="M36.250374,16.8760427 L12.7144395,16.8760427 C5.69281021,16.8760427 5.43840179e-05,23.1703902 5.43840179e-05,30.9310793 C5.43840179e-05,38.6917683 5.69286459,44.9861159 12.7096537,44.9861159 L36.2504284,44.9861159 C43.2720577,44.9861159 48.9648135,38.6917683 48.9648135,30.9310793 C48.9648135,23.1703902 43.2720033,16.8760427 36.2504284,16.8760427 L36.2504284,16.8760427 L36.250374,16.8760427 Z M16.949323,32.8073049 L14.1244539,32.8073049 L14.1244539,35.6192561 C14.1244539,36.6562317 13.2831876,37.4955366 12.2411898,37.4955366 C11.2039778,37.4955366 10.3579256,36.6562866 10.3579256,35.6192561 L10.3579256,32.8073049 L7.5330566,32.8073049 C6.49100444,32.8073049 5.64984684,31.9680549 5.64984684,30.9358537 C5.64984684,29.898878 6.49111321,29.0595732 7.5330566,29.0595732 L10.3579256,29.0595732 L10.3579256,26.247622 C10.3579256,25.2106463 11.199192,24.3761707 12.2411898,24.3761707 C13.2831876,24.3761707 14.1244539,25.2154207 14.1244539,26.247622 L14.1244539,29.0595732 L16.949323,29.0595732 C17.9913751,29.0595732 18.8325871,29.8988232 18.8325871,30.9358537 C18.8325871,31.9680549 17.9913208,32.8073049 16.949323,32.8073049 L16.949323,32.8073049 Z M32.0154362,32.8073049 C30.973384,32.8073049 30.132172,31.9680549 30.132172,30.9358537 C30.132172,29.898878 30.9734384,29.0595732 32.0154362,29.0595732 C33.0574883,29.0595732 33.8987003,29.8988232 33.8987003,30.9358537 C33.8987003,31.9680549 33.057434,32.8073049 32.0154362,32.8073049 L32.0154362,32.8073049 Z M36.723515,37.4907073 C35.6814628,37.4907073 34.8402508,36.6514573 34.8402508,35.6144268 C34.8402508,34.5773963 35.6815172,33.7429756 36.723515,33.7429756 C37.7655671,33.7429756 38.6067791,34.5822256 38.6067791,35.6144268 C38.6067791,36.6514024 37.760727,37.4907073 36.723515,37.4907073 L36.723515,37.4907073 Z M36.723515,28.1239573 C35.6814628,28.1239573 34.8402508,27.2847073 34.8402508,26.2476768 C34.8402508,25.2106463 35.6815172,24.3762256 36.723515,24.3762256 C37.7655671,24.3762256 38.6067791,25.2154756 38.6067791,26.2476768 C38.6067791,27.2846524 37.760727,28.1239573 36.723515,28.1239573 L36.723515,28.1239573 Z M41.4317026,32.8073049 C40.3896504,32.8073049 39.5484928,31.9680549 39.5484928,30.9358537 C39.5484928,29.898878 40.3897592,29.0595732 41.4317026,29.0595732 C42.4737547,29.0595732 43.3149667,29.8988232 43.3149667,30.9358537 C43.3149667,31.9680549 42.4689145,32.8073049 41.4317026,32.8073049 L41.4317026,32.8073049 Z M37.6651743,2.82589024 L37.6651743,0.0139390244 L33.8986459,0.0139390244 L33.8986459,2.12169512 C33.8986459,9.71835366 22.5991154,1.12329878 22.5991154,11.2617988 L22.5991154,14.07375 L26.3656437,14.07375 C25.6199845,3.71337805 37.6651743,15.0383963 37.6651743,2.82589024 L37.6651743,2.82589024 L37.6651743,2.82589024 Z" id="Shape"></path>
                        </g>
                    </g>
                </g>
            </g>
        </g>
    </g>
</svg>