<?xml version="1.0" encoding="UTF-8"?>
<svg width="49px" height="49px" viewBox="0 0 49 49" version="1.1" xmlns="http://www.w3.org/2000/svg" xmlns:xlink="http://www.w3.org/1999/xlink">
    <!-- Generator: Sketch 42 (36781) - http://www.bohemiancoding.com/sketch -->
    <title>index-content-page5-ui@2x</title>
    <desc>Created with Sketch.</desc>
    <defs></defs>
    <g id="Page-1" stroke="none" stroke-width="1" fill="none" fill-rule="evenodd">
        <g id="Desktop-CodeMart-Developer" transform="translate(-402.000000, -2768.000000)">
            <g id="项目类型资源分布" transform="translate(0.000000, 2377.000000)">
                <g id="Group-32" transform="translate(326.000000, 354.000000)">
                    <g id="index-content-page5-ui" transform="translate(69.000000, 30.000000)">
                        <rect id="Rectangle-15" x="0" y="0" width="63" height="63"></rect>
                        <g id="设计" transform="translate(7.000000, 7.500000)" fill-rule="nonzero" fill="#8796A8">
                            <path d="M35.2911704,3.96788571 L44.7245053,13.3390286 L15.6823608,42.1605143 L6.25915981,32.7786857 L35.2911704,3.96788571 L35.2911704,3.96788571 Z M13.5742092,44.2145714 C12.9387638,45.1185714 12.1536122,45.9097143 10.8398825,46.1642857 C8.32493302,46.6514857 5.83169095,47.25 3.33153937,47.8111429 C1.46809988,48.2294286 -0.136405405,46.6748571 0.27966275,44.8492 C0.808010576,42.5308 1.33157932,40.2113714 1.85514806,37.8919429 C2.29539953,35.9414857 2.29407521,35.9412 3.9250094,34.6125143 L13.5742092,44.2145714 Z M37.1341692,2.16445714 L39.3995699,0.0464 L48.9579671,9.65348571 L46.7902785,11.8401714 L37.1342268,2.16445714 L37.1341692,2.16445714 Z M10.0108555,0.440342857 C7.57812926,2.85634286 5.09231492,5.34102857 2.58582961,7.80502857 C1.76008461,8.6168 0.880905993,9.37508571 0.0260834313,10.1578857 L0.0260834313,10.4089714 C0.344842538,10.6596 0.69187309,10.8821714 0.978157462,11.1652571 C4.61809166,14.7648571 8.25664395,18.366 11.8741798,21.9877714 C12.3701105,22.4842857 12.7503643,23.0945714 13.142537,23.5986857 L23.2300306,13.5607429 L10.0108555,0.440342857 L10.0108555,0.440342857 Z M4.53057109,12.0542857 L11.1559929,5.40611429 L13.065611,7.2804 L6.44013161,13.9286286 L4.53051351,12.0543429 L4.53057109,12.0542857 Z M11.7335135,19.1717714 L9.823953,17.2974857 L16.44949,10.6491429 L18.3591081,12.5234286 L11.7335135,19.1718286 L11.7335135,19.1717714 Z M35.0219871,25.3649143 L25.3012162,35.0087429 L38.3866345,47.9930857 L48.0951986,38.3420571 L35.0220447,25.3649143 L35.0219871,25.3649143 Z M29.696188,36.6784571 L36.3217826,30.0302857 L38.2313431,31.9045714 L31.6058637,38.5528571 L29.6962456,36.6785714 L29.696188,36.6784571 Z M36.8992456,43.7958857 L34.9896275,41.9216 L41.6151069,35.2733143 L43.524725,37.1476571 L36.8992456,43.7958857 Z" id="Shape"></path>
                        </g>
                    </g>
                </g>
            </g>
        </g>
    </g>
</svg>