<?xml version="1.0" encoding="UTF-8"?>
<svg width="49px" height="39px" viewBox="0 0 49 39" version="1.1" xmlns="http://www.w3.org/2000/svg" xmlns:xlink="http://www.w3.org/1999/xlink">
    <!-- Generator: Sketch 42 (36781) - http://www.bohemiancoding.com/sketch -->
    <title>index-content-page5-wechat@2x</title>
    <desc>Created with Sketch.</desc>
    <defs></defs>
    <g id="Page-1" stroke="none" stroke-width="1" fill="none" fill-rule="evenodd">
        <g id="Desktop-CodeMart-Developer" transform="translate(-616.000000, -2556.000000)">
            <g id="项目类型资源分布" transform="translate(0.000000, 2377.000000)">
                <g id="Group-20" transform="translate(540.000000, 137.000000)">
                    <g id="index-content-page5-wechat" transform="translate(69.000000, 30.000000)">
                        <rect id="Rectangle-13" x="0" y="0" width="63" height="63"></rect>
                        <g id="微信" transform="translate(7.000000, 12.000000)" fill-rule="nonzero" fill="#8796A8">
                            <path d="M42.9225108,34.7635116 L44.2274609,39 L39.4699602,36.4541163 C37.7356681,36.8785814 35.9933593,37.3021395 34.267084,37.3021395 C26.0142766,37.3021395 19.5171393,31.7931628 19.5171393,25.0080698 C19.5171393,18.2320465 26.0142766,12.7094651 34.267084,12.7094651 C42.0593731,12.7094651 48.9956506,18.2320465 48.9956506,25.0080698 C48.9956506,28.8282558 46.4017839,32.212186 42.9225108,34.7635116 Z M29.485533,19.4972791 C28.6215046,19.4972791 27.7512409,20.3480233 27.7512409,21.1915116 C27.7512409,22.0476977 28.6215046,22.8866512 29.485533,22.8866512 C30.7976091,22.8866512 31.6545115,22.0476977 31.6545115,21.1915116 C31.6545115,20.3480233 30.7976091,19.4972791 29.485533,19.4972791 Z M39.0245847,19.4972791 C38.1659008,19.4972791 37.3000909,20.3480233 37.3000909,21.1915116 C37.3000909,22.0476977 38.1659008,22.8866512 39.0245847,22.8866512 C40.3224088,22.8866512 41.1935632,22.0476977 41.1935632,21.1915116 C41.1935632,20.3480233 40.3224088,19.4972791 39.0245847,19.4972791 Z M18.4277509,25.2112326 C18.4277509,26.441093 18.6237161,27.6283256 18.9630922,28.7611395 C18.4277509,28.8028605 17.8879558,28.8282558 17.343707,28.8282558 C15.1791823,28.8282558 13.4395457,28.3974419 11.2687857,27.9793256 L5.2081163,30.9496744 L6.94151763,25.8524651 C2.60088832,22.8866512 0.00434936718,19.0646512 0.00434936718,14.4127674 C0.00434936718,6.34883719 7.81089052,0 17.343707,0 C25.8699749,0 33.3389215,5.07272094 34.8398368,11.8986279 C34.2875712,11.8396744 33.7317427,11.7988605 33.1705696,11.7988605 C24.9311234,11.7988605 18.4277509,17.8075814 18.4277509,25.2112326 Z M11.7097074,7.20502327 C10.4101018,7.20502327 9.09891638,8.04397673 9.09891638,9.32009302 C9.09891638,10.5898605 10.4101018,11.4415116 11.7097074,11.4415116 C13.0102037,11.4415116 13.8742321,10.5898605 13.8742321,9.32009302 C13.8742321,8.04397673 13.0102037,7.20502327 11.7097074,7.20502327 Z M23.8461888,7.20502327 C22.5456925,7.20502327 21.2434146,8.04397673 21.2434146,9.32009302 C21.2434146,10.5898605 22.5456925,11.4415116 23.8461888,11.4415116 C25.1520297,11.4415116 26.0142766,10.5898605 26.0142766,9.32009302 C26.0142766,8.04397673 25.1520297,7.20502327 23.8461888,7.20502327 Z" id="Shape"></path>
                        </g>
                    </g>
                </g>
            </g>
        </g>
    </g>
</svg>