<?xml version="1.0" encoding="UTF-8"?>
<svg width="43px" height="49px" viewBox="0 0 43 49" version="1.1" xmlns="http://www.w3.org/2000/svg" xmlns:xlink="http://www.w3.org/1999/xlink">
    <!-- Generator: Sketch 42 (36781) - http://www.bohemiancoding.com/sketch -->
    <title>index-content-page5-APP@2x</title>
    <desc>Created with Sketch.</desc>
    <defs></defs>
    <g id="Page-1" stroke="none" stroke-width="1" fill="none" fill-rule="evenodd">
        <g id="Desktop-CodeMart-Developer" transform="translate(-405.000000, -2551.000000)">
            <g id="项目类型资源分布" transform="translate(0.000000, 2377.000000)">
                <g id="Group-18" transform="translate(326.000000, 137.000000)">
                    <g id="index-content-page5-APP" transform="translate(69.000000, 30.000000)">
                        <rect id="Rectangle-11" x="0" y="0" width="63" height="63"></rect>
                        <g id="APP开发" transform="translate(10.000000, 7.000000)" fill-rule="nonzero" fill="#8796A8">
                            <path d="M21.0032775,19.8816784 L21.0032775,23.9935211 L22.2071847,23.9935211 C23.8399899,23.9935211 24.6555066,23.2998653 24.6555066,21.9130496 C24.6555066,20.5582235 23.8483572,19.8816785 22.2323851,19.8816785 L21.0032775,19.8816784 L21.0032775,19.8816784 L21.0032775,19.8816784 Z M37.1973545,14.5471842 L37.1973545,3.06302868 C37.1973545,1.37119482 35.7942072,0.000448318497 34.0636521,0.000448318497 L8.99324551,0.000448318497 C7.26288737,0.000448318497 5.85954312,1.37119482 5.85954312,3.06302868 L5.85954312,14.5471842 L0.0139980151,14.5471842 L0.0139980151,33.6871955 L5.85959232,33.6871955 L5.85959232,45.9369713 C5.85959232,47.6281108 7.26273971,48.9995517 8.99329471,48.9995517 L34.0637014,48.9995517 C35.7942564,48.9995517 37.1974037,47.6281604 37.1974037,45.9369713 L37.1974037,33.6871955 L42.986002,33.6871955 L42.986002,14.5471842 L37.1973545,14.5471842 L37.1973545,14.5471842 Z M34.0637014,3.82859939 L34.0637014,14.5471842 L8.99393457,14.5471842 L8.99344238,3.82859939 L34.063849,3.82859939 L34.0637014,3.82859939 L34.0637014,3.82859939 Z M27.5767287,21.8061196 C27.5767287,23.1108532 27.086897,24.1570901 26.1075781,24.9433426 C25.1284068,25.7305869 23.904172,26.1075695 22.4339878,26.0745879 L21.0032775,26.0745879 L21.0032775,30.5158501 L18.2260222,30.5158501 L18.2260223,17.7763094 L22.7123237,17.7763094 C25.9545549,17.7763094 27.5765811,19.1197779 27.5765811,21.80607 L27.5767287,21.80607 L27.5767287,21.8061196 Z M7.47133165,27.5961076 L6.51179896,30.5158006 L3.49873336,30.5158005 L8.27040902,17.7763094 L11.5359702,17.7763094 L16.215261,30.5158005 L13.1855593,30.5158005 L12.2094396,27.5961075 L7.47133165,27.5961076 L7.47133165,27.5961076 L7.47133165,27.5961076 Z M21.5288918,47.4683607 C20.6636143,47.4683607 19.9611054,46.7822931 19.9611054,45.9369713 C19.9611054,45.0913024 20.6636143,44.4057804 21.5288918,44.4057804 C22.3941693,44.4057804 23.0956446,45.0913024 23.0956446,45.9369713 C23.0956446,46.7823427 22.3941693,47.4683607 21.5288918,47.4683607 L21.5288918,47.4683607 Z M34.0637014,42.8745893 L8.99344238,42.8745893 L8.99359004,33.6871955 L34.0635045,33.6871955 L34.0635045,42.8745893 L34.0637014,42.8745893 L34.0637014,42.8745893 Z M37.0735677,24.9433426 C36.0948886,25.7305869 34.8701616,26.1075695 33.4004696,26.0745879 L31.9696117,26.0745879 L31.9696117,30.5158501 L29.1925533,30.5158501 L29.1925532,17.7763094 L33.6773288,17.7763094 C36.9213812,17.7763094 38.5417339,19.1197779 38.5417339,21.80607 C38.541734,23.1108036 38.0528866,24.1570902 37.0735677,24.9433426 L37.0735677,24.9433426 L37.0735677,24.9433426 Z M33.1984238,19.8816784 L31.9696609,19.8816784 L31.9696609,23.9935211 L33.1722391,23.9935211 C34.8050443,23.9935211 35.6222345,23.2998653 35.6222345,21.9130496 C35.6222345,20.5582731 34.8141992,19.8816784 33.1984238,19.8816784 L33.1984238,19.8816784 Z M9.86994192,19.9724399 L9.79335651,19.9724399 C9.75973965,20.3445124 9.68482769,20.7043347 9.56689793,21.0494763 L8.07687823,25.4988724 L11.5530986,25.4988724 L10.07184,21.0823091 C9.97630506,20.8026844 9.90892368,20.4326453 9.86994192,19.9724399 L9.86994192,19.9724399 L9.86994192,19.9724399 Z" id="Shape"></path>
                        </g>
                    </g>
                </g>
            </g>
        </g>
    </g>
</svg>