<?xml version="1.0" encoding="UTF-8"?>
<svg width="49px" height="49px" viewBox="0 0 49 49" version="1.1" xmlns="http://www.w3.org/2000/svg" xmlns:xlink="http://www.w3.org/1999/xlink">
    <!-- Generator: Sketch 42 (36781) - http://www.bohemiancoding.com/sketch -->
    <title>index-content-page5-data@2x</title>
    <desc>Created with Sketch.</desc>
    <defs></defs>
    <g id="Page-1" stroke="none" stroke-width="1" fill="none" fill-rule="evenodd">
        <g id="Desktop-CodeMart-Developer" transform="translate(-616.000000, -2768.000000)">
            <g id="项目类型资源分布" transform="translate(0.000000, 2377.000000)">
                <g id="Group-30" transform="translate(540.000000, 354.000000)">
                    <g id="index-content-page5-data" transform="translate(69.000000, 30.000000)">
                        <rect id="Rectangle-16" x="0" y="0" width="63" height="63"></rect>
                        <g id="数据分析" transform="translate(7.500000, 7.000000)" fill-rule="nonzero" fill="#8796A8">
                            <g id="Group">
                                <path d="M23.1506423,2.49307407 L23.1506423,25.7319289 L40.6641756,40.9121486 C36.4217472,45.8465718 30.1535114,48.975043 23.1506423,48.975043 C10.3767135,48.975043 0.016580268,38.5705869 0.016580268,25.7329937 C0.016580268,12.8996599 10.3767135,2.49307407 23.1506423,2.49307407 Z M47.8209874,23.8705079 L24.6901056,23.8705079 L24.6901056,0.627393799 C37.4661545,0.627393799 47.8209874,11.0297203 47.8209874,23.8705079 Z M24.84174,25.4065541 L47.9726218,25.4065541 C47.9726218,31.2056196 45.8514075,36.5106037 42.3478528,40.5835793 L24.84174,25.4065541 Z" id="Combined-Shape"></path>
                            </g>
                        </g>
                    </g>
                </g>
            </g>
        </g>
    </g>
</svg>