<?xml version="1.0" encoding="UTF-8"?>
<svg width="45px" height="49px" viewBox="0 0 45 49" version="1.1" xmlns="http://www.w3.org/2000/svg" xmlns:xlink="http://www.w3.org/1999/xlink">
    <!-- Generator: Sketch 42 (36781) - http://www.bohemiancoding.com/sketch -->
    <title>index-content-page5-html@2x</title>
    <desc>Created with Sketch.</desc>
    <defs></defs>
    <g id="Page-1" stroke="none" stroke-width="1" fill="none" fill-rule="evenodd">
        <g id="Desktop-CodeMart-Developer" transform="translate(-832.000000, -2551.000000)">
            <g id="项目类型资源分布" transform="translate(0.000000, 2377.000000)">
                <g id="Group-21" transform="translate(754.000000, 137.000000)">
                    <g id="index-content-page5-html" transform="translate(69.000000, 30.000000)">
                        <rect id="Rectangle-12" x="0" y="0" width="63" height="63"></rect>
                        <g id="html5开发" transform="translate(9.000000, 7.000000)" fill-rule="nonzero" fill="#8796A8">
                            <path d="M0.53479315,0.0392317665 L4.53128675,44.0696895 L22.4726026,48.9607682 L40.4606856,44.0629413 L44.4652069,0.039291519 L0.5357662,0.039291519 L0.53479315,0.039291519 L0.53479315,0.0392317665 Z M35.7635969,14.4398522 L14.7195328,14.4398522 L15.2207745,19.9698609 L35.2642405,19.9698609 L33.7538864,36.5483616 L22.4735149,39.6177819 L11.2071917,36.5483616 L10.4370236,28.0673546 L15.959136,28.0673546 L16.3506057,32.3782664 L22.4744879,33.9986131 L22.4884755,33.9946717 L28.6153985,32.3706224 L29.2511642,25.3687872 L10.1918762,25.3687872 L8.7082809,9.03979122 L36.255838,9.03979122 L35.7635969,14.4398522 L35.7635969,14.4398522 Z" id="Shape"></path>
                        </g>
                    </g>
                </g>
            </g>
        </g>
    </g>
</svg>