<?xml version="1.0" encoding="UTF-8"?>
<svg width="49px" height="39px" viewBox="0 0 49 39" version="1.1" xmlns="http://www.w3.org/2000/svg" xmlns:xlink="http://www.w3.org/1999/xlink">
    <!-- Generator: Sketch 42 (36781) - http://www.bohemiancoding.com/sketch -->
    <title>index-content-page5-web@2x</title>
    <desc>Created with Sketch.</desc>
    <defs></defs>
    <g id="Page-1" stroke="none" stroke-width="1" fill="none" fill-rule="evenodd">
        <g id="Desktop-CodeMart-Developer" transform="translate(-188.000000, -2556.000000)">
            <g id="项目类型资源分布" transform="translate(0.000000, 2377.000000)">
                <g id="Group-17" transform="translate(112.000000, 137.000000)">
                    <g id="index-content-page5-web" transform="translate(69.000000, 30.000000)">
                        <rect id="Rectangle-10" x="0" y="0" width="63" height="63"></rect>
                        <path d="M7,12.5 L56,12.5 L56,50.5 L7,50.5 L7,12.5 Z M8.50769231,18.3461538 L8.50769231,19.8076923 L54.4923077,19.8076923 L54.4923077,18.3461538 L8.50769231,18.3461538 Z M10.3923077,16.8846154 C11.0168143,16.8846154 11.5230769,16.3938506 11.5230769,15.7884615 C11.5230769,15.1830725 11.0168143,14.6923077 10.3923077,14.6923077 C9.76780109,14.6923077 9.26153846,15.1830725 9.26153846,15.7884615 C9.26153846,16.3938506 9.76780109,16.8846154 10.3923077,16.8846154 Z M14.9153846,16.8846154 C15.5398912,16.8846154 16.0461538,16.3938506 16.0461538,15.7884615 C16.0461538,15.1830725 15.5398912,14.6923077 14.9153846,14.6923077 C14.290878,14.6923077 13.7846154,15.1830725 13.7846154,15.7884615 C13.7846154,16.3938506 14.290878,16.8846154 14.9153846,16.8846154 Z M19.4384615,16.8846154 C20.0629681,16.8846154 20.5692308,16.3938506 20.5692308,15.7884615 C20.5692308,15.1830725 20.0629681,14.6923077 19.4384615,14.6923077 C18.8139549,14.6923077 18.3076923,15.1830725 18.3076923,15.7884615 C18.3076923,16.3938506 18.8139549,16.8846154 19.4384615,16.8846154 Z M25.5779025,30.7107936 L24.6905353,29.9188646 L19.8153846,35.0522067 L24.7145102,40.2107936 L25.6018774,39.4188646 L21.4548492,35.0522067 L25.5779025,30.7107936 Z M37.5298949,39.4188646 L38.417262,40.2107936 L43.3163877,35.0522067 L38.441237,29.9188646 L37.5538698,30.7107936 L41.6769231,35.0522067 L37.5298949,39.4188646 Z M33.4536596,29.3076923 L28.2454932,40.1920602 L29.6132102,40.8070572 L34.8213767,29.9226893 L33.4536596,29.3076923 Z" id="Combined-Shape" fill="#8796A8"></path>
                    </g>
                </g>
            </g>
        </g>
    </g>
</svg>